<?xml version="1.0" encoding="UTF-8" standalone="no"?><svg xmlns="http://www.w3.org/2000/svg" fill="none" height="25" viewBox="0 0 24 25" width="24">
<g id="ico279">
<g id="Color_base">
<path clip-rule="evenodd" d="M9.5 10C11.433 10 13 8.433 13 6.5C13 4.567 11.433 3 9.5 3C7.567 3 6 4.567 6 6.5C6 8.433 7.567 10 9.5 10ZM9.5 11.5C12.2614 11.5 14.5 9.26142 14.5 6.5C14.5 3.73858 12.2614 1.5 9.5 1.5C6.73858 1.5 4.5 3.73858 4.5 6.5C4.5 9.26142 6.73858 11.5 9.5 11.5Z" fill="#333333" fill-rule="evenodd"/>
<path clip-rule="evenodd" d="M10.6857 14.1293C9.88212 13.9519 9.04893 13.9571 8.24758 14.1445C7.44623 14.3319 6.69715 14.6967 6.05555 15.2121C5.41395 15.7275 4.8962 16.3803 4.54044 17.1224C4.18468 17.8645 4 18.677 4 19.5C4 19.9142 3.66421 20.25 3.25 20.25C2.83579 20.25 2.5 19.9142 2.5 19.5C2.5 18.4526 2.73505 17.4185 3.18783 16.474C3.64061 15.5295 4.29958 14.6987 5.11616 14.0427C5.93273 13.3868 6.88611 12.9224 7.90601 12.6839C8.92591 12.4454 9.98633 12.4388 11.0091 12.6646C11.4136 12.7539 11.6691 13.1542 11.5798 13.5587C11.4905 13.9631 11.0902 14.2186 10.6857 14.1293Z" fill="#333333" fill-rule="evenodd"/>
<path clip-rule="evenodd" d="M17.5 14.75C17.9142 14.75 18.25 15.0858 18.25 15.5L18.25 16.75H19.5C19.9142 16.75 20.25 17.0858 20.25 17.5C20.25 17.9142 19.9142 18.25 19.5 18.25H18.25V19.5C18.25 19.9142 17.9142 20.25 17.5 20.25C17.0858 20.25 16.75 19.9142 16.75 19.5V18.25H15.5C15.0858 18.25 14.75 17.9142 14.75 17.5C14.75 17.0858 15.0858 16.75 15.5 16.75H16.75L16.75 15.5C16.75 15.0858 17.0858 14.75 17.5 14.75Z" fill="#333333" fill-rule="evenodd"/>
<path clip-rule="evenodd" d="M17.5 22C19.9853 22 22 19.9853 22 17.5C22 15.0147 19.9853 13 17.5 13C15.0147 13 13 15.0147 13 17.5C13 19.9853 15.0147 22 17.5 22ZM17.5 23.5C20.8137 23.5 23.5 20.8137 23.5 17.5C23.5 14.1863 20.8137 11.5 17.5 11.5C14.1863 11.5 11.5 14.1863 11.5 17.5C11.5 20.8137 14.1863 23.5 17.5 23.5Z" fill="#333333" fill-rule="evenodd"/>
</g>
</g>
</svg>