<?xml version="1.0" encoding="UTF-8" standalone="no"?><svg xmlns="http://www.w3.org/2000/svg" fill="none" height="32" viewBox="0 0 32 32" width="32">
<path d="M16 0.5C24.5604 0.5 31.5 7.43959 31.5 16C31.5 24.5604 24.5604 31.5 16 31.5C7.43959 31.5 0.5 24.5604 0.5 16C0.5 7.43959 7.43959 0.5 16 0.5Z" stroke="#007EAE"/>
<path clip-rule="evenodd" d="M21.6687 10.3292C20.1648 8.83172 18.1647 8.00662 16.0336 8.00586C11.6423 8.00586 8.06838 11.5596 8.06685 15.9278C8.06608 17.3243 8.43318 18.6873 9.13031 19.8885L8 23.9942L12.2233 22.8925C13.3868 23.5239 14.697 23.8563 16.0302 23.8567H16.0336C20.4242 23.8567 23.9985 20.3025 24 15.9343C24.0008 13.8173 23.173 11.8271 21.6687 10.3296V10.3292ZM16.0336 22.5187H16.0309C14.8429 22.5184 13.6775 22.2008 12.6607 21.601L12.4189 21.4581L9.91262 22.1119L10.5815 19.6818L10.4241 19.4326C9.76135 18.3842 9.41107 17.1723 9.41183 15.9282C9.41336 12.2977 12.3837 9.34379 16.0363 9.34379C17.8049 9.34455 19.4673 10.0302 20.7176 11.2751C21.9678 12.5196 22.6558 14.1743 22.655 15.9336C22.6535 19.5644 19.6832 22.5184 16.0336 22.5184V22.5187ZM19.6656 17.5872C19.4665 17.488 18.4879 17.0094 18.3053 16.9433C18.1227 16.8772 17.9902 16.8441 17.8576 17.0424C17.7251 17.2407 17.3435 17.6867 17.2273 17.8185C17.1112 17.9507 16.9951 17.9671 16.796 17.8679C16.5971 17.7687 15.9557 17.5598 15.1952 16.8855C14.6035 16.3605 14.2039 15.7125 14.0878 15.5141C13.9716 15.3159 14.0756 15.2087 14.1748 15.1103C14.2642 15.0215 14.3739 14.879 14.4736 14.7635C14.5733 14.648 14.6061 14.5652 14.6726 14.4334C14.7391 14.3012 14.7058 14.1857 14.6562 14.0866C14.6065 13.9874 14.2085 13.013 14.0423 12.6168C13.8807 12.2309 13.7165 12.2833 13.5946 12.2768C13.4785 12.2711 13.346 12.27 13.213 12.27C13.0801 12.27 12.8646 12.3194 12.682 12.5177C12.4995 12.716 11.9853 13.195 11.9853 14.169C11.9853 15.143 12.6985 16.0848 12.7982 16.217C12.8979 16.3492 14.202 18.3484 16.1986 19.2062C16.6735 19.4102 17.0444 19.5321 17.3335 19.6233C17.8103 19.7741 18.2442 19.7529 18.5872 19.7019C18.9696 19.645 19.7649 19.2229 19.9307 18.7606C20.0964 18.2983 20.0964 17.9017 20.0468 17.8193C19.9972 17.7368 19.8642 17.6871 19.6652 17.5879L19.6656 17.5872Z" fill="#007EAE" fill-rule="evenodd"/>
</svg>